<?xml version="1.0" encoding="UTF-8"?>
<svg data-bbox="59.249 47.666 899.891 718.425" viewBox="0 0 1024 768" xmlns="http://www.w3.org/2000/svg" data-type="shape">
    <g>
        <path d="M292.716 603.41c-8.984-.15-16.987 3.55-25.528 3.778-20.87.555-41.292 4.667-61.82 7.926-1.287.205-2.594.334-4.02-.984 3.033-3.074 7.002-3.883 10.548-5.24 13.187-5.044 25.423-11.631 35.984-21.105 2.024-1.816 1.985-1.86 3.093-5.01-4.095-.848-7.293 1.936-10.952 2.521-1.548.248-3.392 1.552-4.568-.313-1.085-1.721.49-3.1 1.371-4.452 1.502-2.302 4.044-4.003 4.206-7.14-2.178-2.012-3.763-.191-5.336.754-7.036 4.224-13.116 9.657-19.114 15.206-4.032 3.728-8.106 7.436-12.422 10.821-2.554 2.003-5.553 3.597-9.352 2.628.464-4.268 3.593-6.49 6.113-8.927 10.173-9.84 20.517-19.503 30.769-29.263 2.915-2.775 5.371-5.935 6.982-9.648.658-1.517 1.194-3.236-.254-4.674-1.542-1.532-3.386-1.233-5.11-.445-5.77 2.638-9.98 7.137-13.885 11.95-1.34 1.652-2.467 3.505-5.424 3.942-4.015-17.205 6.733-31.16 9.897-47.22-3.602.947-4.79 3.232-6.2 5.153-7.706 10.484-13.724 22.028-20.648 33.003-2.054 3.255-3.608 7.169-7.972 8.294-2.177-2.133-.456-3.846.223-5.55 3.301-8.292 9.202-15.03 13.68-22.627 7.467-12.672 13.288-26.108 19.122-39.534 3.998-9.201 8.259-18.192 14.26-26.279.468-.63.687-1.443 1.1-2.341-4.369-3.357-8.683 2.312-13.558-.573 7.018-12.004 17.784-21.317 24.446-34.619-6.15-.122-9.476 3.285-12.92 6.041-11.14 8.916-18.91 20.544-25.296 33.07-2.335 4.579-5.977 7.938-8.912 11.93-4.928 6.7-10.519 12.904-15.046 19.92-.722 1.119-1.809 1.929-3.294 1.852-1.772-1.87-.3-3.55.19-5.135 4.153-13.418 11.188-25.588 16.705-38.416 4.665-10.845 9.078-21.8 13.453-32.766.696-1.743 1.33-3.805-.346-6.403-9.346 6.302-15.876 16.09-25.599 21.789-2.25-3.021-.946-4.978-.092-6.894 3.173-7.116 8.688-12.574 13.38-18.602 11.044-14.186 22.255-28.242 33.242-42.47 2.839-3.677 5.174-7.753 7.585-11.74.902-1.492 2.206-3.4.136-4.887-1.762-1.267-3.552-.172-5.078.865-6.925 4.71-13.762 9.551-20.747 14.17-2.114 1.398-4.43 3.049-7.513 1.674.213-5.955 7.382-8.491 7.324-14.539-2.883-.658-3.924 1.392-5.276 2.68-3.737 3.562-7.298 7.312-11.077 10.828-1.683 1.566-3.965 3.479-6.154 1.69-2.245-1.835.015-3.997 1-5.73 6.417-11.294 12.978-22.507 19.411-33.792.997-1.748 2.822-3.432 1.368-6.164-6.82 2.87-11.39 10.25-19.661 10.289-.642-2.725 1.084-3.764 2.349-4.963 11.473-10.878 22.437-22.297 34.507-32.542.76-.645 1.43-1.397 2.153-2.088 1.495-1.427 2.899-2.851 1.548-5.158-1.436-2.456-3.675-2.058-5.744-1.448-4.144 1.22-8.217 2.682-12.317 4.049-1.732.577-3.452 1.296-5.883.065 2.284-4.453 5.914-7.393 9.994-9.855 4.561-2.753 9.214-5.354 13.788-8.085 1.278-.763 2.54-1.63 3.602-2.662 3.53-3.428 3.114-5.494-1.465-7.182-3.581-1.32-7.251-2.399-10.837-3.708-1.86-.68-3.763-1.462-4.406-3.747 1.608-2.214 3.704-.86 5.484-.596 8.781 1.303 16.54.022 22.316-7.6 3.41-4.502 8.343-7.055 13.328-9.419 2.59-1.229 4.87-2.698 6.018-5.973-5.075-2.394-10.001-4.683-14.89-7.047-1.181-.57-2.392-1.232-3.328-2.126-2.528-2.415-1.537-4.021 1.398-4.999 3.582-1.193 7.275-.702 10.916-.59 4.4.135 8.649-.296 12.696-2.117 4.74-2.132 5.65-5.025 3.074-9.606-2.282-4.06-6.428-6.626-9.508-11.388 5.635-1.348 10.595-2.273 15.601-1.584 8.226 1.133 15.676 4.402 22.258 9.503 2.584 2.002 5.684 2.755 8.649 3.777 10.155 3.499 18.195 9.663 23.868 18.769 5.626 9.03 13.112 13.817 24.277 13.66 12.182-.17 24.09 2.776 35.849 5.97 6.327 1.717 6.532 1.495 6.336-4.722-.23-7.294 5.89-11.692 12.79-9.13 5.79 2.15 9.98 6.293 12.276 11.821 3.624 8.727 9.326 15.245 17.79 19.407 1.03.506 1.925 1.317 2.825 2.056 3.995 3.284 3.563 6.02-1.155 8.066-4.397 1.907-8.727 1.63-13.136.054-1.372-.49-3.56-1.905-4.156-.917-2.817 4.67-6.379 2.405-9.89 1.65-1.541-.33-3.071.257-4.257 1.132-3.87 2.858-8.22 3.476-12.79 2.92-8.502-1.037-15.968 2.625-23.676 5.12-2.18.705-4.397 1.848-5.54 4.051-3.632 7.003-9.555 11.881-15.393 16.85-3.725 3.172-6.709 6.854-8.735 11.387-6.449 14.428-13.4 28.642-19.475 43.223-6.487 15.57-6.55 31.972-5.143 48.567.902 10.634 3.723 20.916 4.693 31.5.243 2.653.988 5.378.623 7.945-1.12 7.868 2.712 13.868 6.941 19.696 3.166 4.362 6.176 8.627 6.265 14.346.025 1.584.62 3.424 1.567 4.686 5.455 7.277 5.066 15.948 6.155 24.29.932 7.148 2.846 14.091 6.143 20.479 3.723 7.21 10.237 9.858 18.147 10.288 11.738.639 17.473 5.589 20.183 16.509.816 3.286.221 5.279-3.085 7.292-7.738 4.713-16.37 6.394-24.865 8.607-6.434 1.676-12.2 3.931-15.96 10.06-1.937 3.159-5.954 2.477-9.208 2.646-4.97.26-9.954.336-14.932.325-4.148-.01-7.207 1.334-8.031 5.768-.561 3.017-2.684 3.958-5.319 4.367-5.63.873-11.238 1.078-16.888-.02-2.76-.535-5.605-.633-8.809-.921"/>
        <path d="M634.616 574.905c-9.262.413-18.073.795-26.797 2.246-2.966.494-5.534-.813-8.1-2.02-4.819-2.268-9.655-4.5-14.44-6.838-2.785-1.36-5.792-1.976-8.74-1.66-10.347 1.114-20.633-.274-30.934-.58-3.5-.103-9.07.568-9.381-4.29-.266-4.154 5.153-3.637 8.232-4.866a5 5 0 0 1 1.96-.354c12.015.365 21.464-5.705 30.878-12.066 6.133-4.145 7.686-9.73 4.02-16.29-1.057-1.89-2.149-3.76-3.135-5.686-.518-1.013-1.42-2.262-.67-3.275 5.262-7.117-2.22-13.07-1.69-19.724-4.518-1.152-4.896-7.813-10.524-7.709-3.141.059-2.597-3.94-4.558-5.207-2.203-.362-2.982 2.358-5.395 1.92-1.538-2.758-.895-5.973-.563-8.95 1.94-17.383 2.274-34.823 1.799-52.266-.26-9.552.764-18.801 2.887-28.117 2.831-12.421 10.148-21.122 20.792-27.279 3.408-1.971 6.39-4.012 8.508-7.397 1.608-2.57 4.305-4.109 6.701-5.907 5.466-4.102 6.101-8.154 3.153-14.265-4.586-9.503-10.36-18.268-16.612-26.662-6.245-8.384-13.237-16.211-20.24-24.692 2.975-1.533 6.021-1.294 9.073-.777 19.193 3.249 34.448 13.632 47.944 26.939 2.622 2.585 5.133 3.767 8.712 3.707 7.367-.125 14.608-1.358 21.776-2.686 17.486-3.24 34.829-7.225 52.592-8.874 11.233-1.043 22.25.299 33.252 2.23 1.08.19 2.387.211 3.038 1.91-2.858 2.602-6.716 2.001-10.09 2.704-4.88 1.016-9.866 1.53-14.558 3.357-1.886.734-4.207 1.507-3.875 3.898.349 2.518 2.91 2.389 4.856 2.438 14.398.367 28.557 2.004 41.941 7.774 4.622 1.993 9.41 3.812 12.55 7.984l-.256 1.857c-4.86 0-9.725.107-14.582-.032-4.223-.121-8.246.81-12.295 1.76-1.463.344-3.255.39-3.323 2.335-.06 1.693 1.37 2.542 2.803 3.152 5.049 2.151 10.06 4.394 15.16 6.418 11.822 4.695 22.644 11.224 33.345 17.984 1.08.682 2.366 1.312 2.545 3.931-10.746.662-21.585-1.966-32.306.761 13.397 6.313 28.009 9.289 41.494 15.69-8.608 4.122-18.47 3.266-27.635 8.083 11.608 1.438 22.648-2.825 34.298 2.293-10.213 4.797-21.041 4.011-30.045 9.515 11.132 1.482 22.491-1.43 34.97 2.408-13.56 4.795-27.183 4.44-38.748 11.096 10.93.84 21.727-1.616 32.798-.784-18.856 7.567-38.184 13.674-56.063 23.612 7.343.07 14.285-1.958 21.241-3.798 7-1.851 13.489-5.2 20.44-7.433-13.728 16.386-32.754 26.942-47.515 43.808 7.427 1.005 10.937-3.55 15.373-5.7 4.437-2.151 7.837-5.934 12.328-8.425-4.565 11.487-14.112 19.13-22.272 28.04 4.009 2.023 6.001-2.884 9.88-1.398-7.652 11.83-17.095 21.868-26.692 31.315.955 2.736 3.194.365 4.304 2.643-3.229 5.475-9.792 8.802-13.267 16.31 11.736-4.672 17.762-15.263 28.99-20.568-1.894 5.937-5.626 9.29-8.694 12.912-16.084 18.99-37.125 28.478-61.417 31.799-14.24 1.947-28.5 1.798-42.796 1.358-1.986-.062-3.983.234-6.425.388M601.564 449.14c-.068-2.316-.11-4.614-.83-6.874-2.136-6.702-1.932-12.591 2.338-19.099 5.317-8.102 4.604-18.131 4.585-27.583-.008-4.598.731-8.842 2.706-13.027 3.72-7.884.169-13.246-8.46-13.185-3.684.026-5.5 1.837-4.299 5.357.824 2.416.18 4.504.062 6.788-.213 4.13-3.985 7.187-3.36 11.299.447 2.943.106 5.019-2.339 6.94-2.196 1.726-2.077 4.008-.195 6.11.851.95 2.269 1.537 2.001 3.577-1.618.951-3.545 1.889-5.247 3.134-1.976 1.447-2.967 3.383-.748 5.4 2.85 2.59 1.863 4.502-.737 6.416-1.728 1.272-3.165 2.783-.97 4.85 3.156 2.974 2.552 4.884-1.034 7.296-4.166 2.801-4.008 5.776-.058 8.937 2.855 2.285 3.002 4.274-.046 6.205-3.665 2.322-3.885 4.585-.361 7.213.643.48 1.026 1.316.605 2.336-1.046 1.546-5.79 1.957-3.06 4.704 5.534 5.566 1.858 6.796-2.907 8.198-.55.162-.95.837-1.266 1.132-.206 1.958 1.833 3.16.868 5.245-.381.18-.936.592-1.547.708-1.64.31-3.621.332-4.131 2.216-.562 2.074 1.259 3.271 2.575 4.48 4.047 3.72 8.142 7.331 13.462 9.276 5.67 2.073 9.732-.286 10.5-6.385.494-3.918-.8-7.559-1.843-11.226-.763-2.679-.09-4.818 1.028-7.466 2.966-7.022 3.646-14.605 2.708-22.972"/>
        <path d="M197.113 118.75c5.737-9.222 5.734-9.218 14.447-3.305 1.24.84 2.525 1.616 3.791 2.418 2.02 1.28 2.58 2.734 1.165 4.98-6.033 9.576-11.94 19.233-17.918 28.844-.791 1.271-1.682 2.728-3.468 2.373-4.796-.956-3.965 1.346-3.012 4.473 1.256 4.115-5.013 13.312-9.241 13.368-4.293.056-5.785 2.424-6.78 6.482 7.203 1.741 4.819 5.951 2.695 10.448-4.172 8.836-7.443 17.528-5.89 28.046 1.516 10.259.31 20.915.367 31.396.024 4.397-2.194 7.67-4.859 11.527-1.91-12.376-2.266-24.07-1.953-36.621-3.42 2.05-3.85 4.286-4.72 6.176-5.044 10.975-10.285 12.866-21.3 8.301-11.84-4.907-23.832-9.45-35.804-14.028-4.728-1.808-8.818-10.157-7.087-14.979 1.517-4.227 3.544-8.354 4.415-12.711 1.225-6.133 5.479-9.115 10.248-11.962 1.833-1.094 3.44-.663 5.21.041 10.517 4.18 21.116 8.157 31.553 12.524 4.756 1.99 10.433.893 14.505 4.835 1.402-3.49-1.663-10.822-5.821-13.082-9.652-5.246-19.465-10.195-29.2-15.287-1.468-.768-2.823-.823-4.213.156-1.443 1.017-2.85.42-4.256-.178-7.21-3.068-7.672-4.32-4.216-11.284 2.96-5.965 6.083-11.86 8.764-17.95 1.796-4.078 4.659-6.622 8.498-8.669 3.308-1.763 6.087-1.812 9.363.004 4 2.218 7.735 5.149 12.392 5.917 1.962-1.971.09-4.904 2.182-6.61 1.692.12 1.84 1.87 1.645 2.552-1.457 5.056 2.154 8.816 3.333 13.129 1.708 6.253 8.105 7.458 12.586 2.917.916-.927 1.897-1.79 3.024-2.846 3.135 2.411 6.511 4.041 10.202 4.995 2.55-8.269-4.869-16.554-14.177-15.563-.81-7.539-7.79-8.693-12.844-11.714-1.469-.877-2.878-1.402-4.081-2.838-1.463-1.746-3.073-4.088-6.167-2.007-2.298 1.544-3.577-.797-5.055-1.971-6.926-5.502-6.838-5.46-1.954-13.03 5.05-7.828 10.024-15.71 14.822-23.696 1.653-2.75 3.284-3.432 5.999-1.628 2.215 1.472 4.571 2.732 6.85 4.11 3.478 2.1 6.684 3.8 4.244 9.232-1.943 4.33.265 6.01 5.475 7.036 3.57.702 6.607 3.086 9.315 5.6 1.279 1.189.468 2.424-.234 3.598-1.797 3-3.524 6.044-5.374 9.011-1.5 2.405-1.402 4.338 1.253 5.807.726.401 1.332 1.067 2.091 1.354 2.523.956 4.537 5.16 7.72 1.997 2.759-2.741 5.697-6.06 1.185-9.976-.213-.185.064-.934.285-1.712m-83.428 94.314c9.82 3.582 19.697 7.015 29.434 10.81 4.564 1.778 6.75.252 8.17-4.037 2.05-6.186 1.755-7.28-3.361-9.314-7.71-3.065-15.458-6.038-23.11-9.24-9.667-4.045-11.862-2.862-13.664 7.59-.328 1.902-.152 3.287 2.531 4.191m26.295-63.352c-5.163-.98-4.87 3.891-6.741 6.382-.98 1.303-1.036 2.848.623 3.856 3.062 1.86 6.192 5.084 9.694 3.973 2.835-.898 3.638-4.875 4.154-8 .419-2.532-1.732-3.318-3.467-4.241-1.166-.621-2.404-1.109-4.263-1.97m24.911-48.91c-2.32 2.459-5.03 5.618-3.52 8.628 1.68 3.353 5.525 5.301 10.151 6.072.16-4.698.548-8.914-.098-13.07-2.104-.627-3.997-1.191-6.533-1.63"/>
        <path d="M525.166 472.097c4.558 17.598 6.044 34.87.03 51.985-4.866 13.849-11.904 26.197-26.749 31.664-6.762 2.49-13.833 3.727-21.08 3.296-3.956-.236-6.898.613-9.143 4.428-2.88 4.89-8.03 6.225-13.405 6.304-2.76.041-4.376-1.43-5.384-4.237-4.247-11.821-6.973-23.912-7.717-36.474-.987-16.656-.514-33.199 3.056-49.565 2.82-12.926 6.966-25.327 14.302-36.48.83-1.26 1.55-2.482 1.346-4.146-1.47-12.004-.765-23.932 1.61-35.756.824-4.1.163-7.926-1.273-11.714-2.918-7.7-4.006-15.563-4.296-23.883-.65-18.657 1.944-36.808 6.418-54.752 1.888-7.574 4.848-14.846 9.311-21.422 2.323-3.422 4.864-4.292 8.35-1.894 1.918 1.318 4.504 2.163 5.692 3.95 3.455 5.2 8.65 6.048 14.108 7.642 18.23 5.32 30.87 16.829 37.047 35.25 1.822 5.435 3.228 10.767 3.168 16.44-.023 2.119.955 2.95 2.72 3.557 1.56.537 3.738.41 4.043 2.905-2.443 1.39-4.108-1.194-6.468-.885-2.282 7.04-2.29 14.626-4.72 21.715-7.103 20.718-19.463 36.015-45.283 35.293-4.474-.125-8.967.424-13.391-.958-3.578-1.118-5.532.938-5.82 4.225-.392 4.468-.418 8.98-.372 13.471.045 4.397 3.812 4.157 6.562 4.478a68.8 68.8 0 0 1 17.824 4.534c14.425 5.805 24.51 15.727 29.514 31.03m-34.556-28.273c-3.683-1.755-7.739-1.997-11.656-2.433-4.398-.489-8.048 1.22-10.403 5.378-5.102 9.008-9.2 18.444-12.416 28.266-6.244 19.069-7.46 38.078.91 56.921 4.697 10.576 11.9 18.42 24.151 18.764 15.736.44 25.645-9.007 32.431-21.89 7.59-14.41 9.234-30.11 6.997-46.039-2.549-18.144-10.795-32.395-30.014-38.967m-7.28-36.88c2.926 1.314 5.912-.104 8.88.203 8.387.866 15.934-1.723 22.078-7.17 12.67-11.238 16.651-26.305 17.28-42.535.159-4.13-4.098-8.741-8.196-9.611-4.168-.885-8.633-2.592-11.511-4.844-3.241-2.535-5.266-6.938-8.865-9.973-2.626-2.215-3.093-7.278-.823-9.971 2.216-2.632 5.624-.601 8.142 1.613 1.255 1.104 2.314 2.958 4.786 2.295.599-2.422-.254-4.137-2.435-5.261-1.402-.723-2.746-1.68-2.673-3.322.23-5.147-3.385-6.346-7.23-7.305-8.124-2.027-15.493-.594-21.935 4.946-11.87 10.21-15.899 23.947-16.366 38.762-.465 14.738 2.944 29.035 7.619 42.962 1.645 4.902 4.3 9.138 11.248 9.211"/>
        <path d="M882.639 261.724c-9.103 4.211-17.868 8.251-26.64 12.28-1.521.699-3.29 1.292-3.62 3.126-.378 2.107-.042 4.423-2.52 5.532-4.242 1.897-8.434 3.923-12.755 5.62-1.537.604-2.259-1.015-2.829-2.235-3.168-6.784-6.27-13.599-9.507-20.35-1.188-2.477-.598-4.145 1.766-5.29 3.594-1.742 7.209-3.442 10.818-5.154 1.26-.597 2.741-1.086 3.685.156 2.672 3.518 5.513 1.92 8.412.554 1.958-.922 3.922-1.83 5.873-2.769 7.247-3.486 7.245-3.49 4.159-10.7-4.854-11.341-4.87-11.375-15.916-6.314-3.879 1.777-8.646 2.432-8.546 8.682.034 2.078-3.536 2.655-5.624 3.606-10.823 4.931-10.819 4.906-15.74-5.968-1.853-4.094-3.624-8.238-5.73-12.2-1.588-2.986-.723-4.556 2.138-5.788 3.055-1.316 6.006-2.87 9.013-4.299 2.4-1.14 4.704-2.655 6.903.613 1.106 1.643 2.982.943 4.562.214 16.165-7.467 32.336-14.918 48.49-22.407 1.347-.624 3.16-1.461 2.888-3.077-.741-4.41 2.392-5.325 5.307-6.574 1.53-.656 3.123-1.192 4.587-1.97 9.166-4.875 7.668-2.902 11.14 3.85 2.66 5.176 4.916 10.558 7.555 15.745 1.443 2.838 1.191 4.559-2.038 5.724-3.123 1.126-6.107 2.64-9.14 4.012-2.454 1.11-4.86 2.55-6.918-.733-.588-.94-1.78-.76-2.75-.327-5.584 2.487-11.161 4.99-16.842 7.532 1.316 5.961 4.304 10.605 6.578 15.54 1.11 2.41 2.936 2.253 5.01 1.277 4.214-1.984 8.46-3.9 12.695-5.836 1.071-.49 2.668-1.095 2.37-2.242-1.3-5.003 2.502-5.712 5.579-7.111 11.254-5.12 11.232-5.11 16.664 5.946 2.417 4.92 5.057 9.736 6.957 15.788-5.189 2.346-10.406 4.736-15.662 7.035-.52.228-1.639.149-1.872-.197-2.946-4.373-6.156-1.596-9.135-.28-6.394 2.822-12.693 5.862-19.365 8.989"/>
        <path d="M927.85 508.919c9.362.777 13.547 6.677 16.27 14.372.75 2.12 1.163 3.982.539 6.24a3217 3217 0 0 0-10.773 39.98c-.863 3.285-2.623 4.343-5.851 3.435-3.361-.946-6.763-1.753-10.16-2.567-2.388-.574-4.275-1.229-4.306-4.433-.027-2.796-3.012-2.877-4.912-3.4-14.103-3.879-28.256-7.576-42.393-11.333-2.571-.683-5.165-1.297-7.7-2.1-2.714-.86-5.178-1.387-6.825 1.822-.591 1.15-1.877 1.258-3.091 1.176a2.5 2.5 0 0 1-.493-.071c-4.491-1.222-9.985-1.252-13.22-3.97-4.149-3.488.202-8.626 1.451-12.553 3.331-10.476 5.222-21.32 8.71-31.724 2.561-7.636 12.925-13.19 20.541-11.22 4.823 1.248 9.691 2.322 14.533 3.496 5.728 1.39 11.174 3.2 14.271 8.88 1.004 1.84 2.527 3.58 4.79 2.05 6.319-4.272 12.579-2.713 19.022-.421 2.957 1.052 6.124 1.518 9.596 2.34m-23.19 13.864c-3.377 1.31-2.659 4.662-3.405 7.173-2.91 9.798-2.826 9.823 6.893 12.508 12.865 3.554 12.966 3.43 15.312-9.884.534-3.028-.256-4.854-3.2-5.665a723 723 0 0 0-15.6-4.132m-21.388-4.698c-2.429-2.335-5.742-2.44-8.71-3.282-12.711-3.603-12.724-3.498-15.176 9.407-.67 3.528.086 5.762 3.954 6.522 3.577.703 7.126 1.611 10.619 2.658 3.857 1.157 5.974-.083 6.817-4.022.761-3.557 1.795-7.056 2.496-11.283"/>
        <path d="M952.825 393.752c3.764-.4 5.085.954 5.588 4.366 1.03 6.98.645 13.948.704 20.925.023 2.809-1.231 4.281-4.22 4.301-3.491.024-6.98.328-10.47.463-2.22.086-4.327.027-5.262-2.663-.743-2.138-2.714-2.208-4.594-2.157-17.636.482-35.273.936-52.907 1.513-2.628.086-5.374.432-6.478 3.628-.558 1.615-2.043 2.07-3.629 2.162-4.148.241-8.294.533-12.445.698-1.986.08-3.802-.455-3.748-2.94.299-13.94-1.091-27.814-1.531-41.722-.258-8.152 7.967-16.693 15.964-17.782 9.605-1.31 19.3-.294 28.893-1.543 3.368-.439 5.557 1.826 7.66 4 1.617 1.672 3.106 3.468 4.74 5.122 2.485 2.518 5.126 3.172 8.52 1.334 3.497-1.894 7.26-3.334 10.998-4.729 3.575-1.334 6.739-2.73 7.026-7.299.142-2.252 2.2-3.1 4.071-2.765 5.002.9 10.412-2.726 14.896.785 1.779 1.393.752 4.781.706 7.242-.253 13.463 2.18 10.497-10.29 15.7-8.906 3.716-17.866 7.3-26.79 10.973-1.805.743-4.146 1.232-3.77 3.9.432 3.066 3.039 2.591 5.122 2.599 3.662.014 7.326-.105 10.986-.243 2.869-.109 5.626-.343 7.07-3.56.848-1.892 2.837-2.13 4.729-2.169 2.664-.053 5.328-.089 8.46-.14m-56.447-1.128c-2.175-10.297-2.175-10.295-12.524-9.553-.828.06-1.659.064-2.489.091-7.264.239-7.264.238-7.167 7.62.007.497.005.996.006 1.494.02 9.604.049 9.62 9.395 8.76 1.485-.136 2.984-.133 4.478-.16 7.517-.135 7.517-.13 8.301-8.252"/>
        <path d="M802.146 753.892c-.786-1.052-1.964-2.228-1.741-2.631 2.657-4.817-1.298-6.38-3.999-8.633a21918 21918 0 0 1-37.926-31.726c-2.087-1.75-3.951-3.614-6.872-1.064-1.666 1.454-3.062-.355-4.313-1.34-3.004-2.365-5.85-4.942-8.946-7.176-2.006-1.447-2.19-2.726-.567-4.449 9.936-10.548 19.042-21.811 28.4-32.858 2.76-3.257 15.867-5.116 19.234-2.51 7.101 5.498 13.925 11.355 20.848 17.081 2.265 1.873 2.49 4.659 2.933 7.246.563 3.297 2.036 5.16 5.64 4.822 4.193-.392 7.665.938 10.893 3.822 5.087 4.543 10.578 8.631 15.854 12.966 5.61 4.61 7.083 16.45 2.394 21.998-9.024 10.676-18.323 21.121-27.484 31.682-1.686 1.943-3.313 1.783-5.161.239-2.939-2.455-5.948-4.827-9.187-7.47m-12.348-54.57c1.151-2.594 6.132-4.378 1.804-8.137-3.51-3.047-7.118-5.979-10.656-8.993-1.867-1.591-3.581-1.612-5.102.401-9.286 12.293-12.495 8.608 1.268 19.247 6.673 5.159 6.803 4.99 12.686-2.517m28.593 13.83c-1.968-1.526-3.896-3.108-5.92-4.556-1.059-.757-2.249-1.586-3.629-.532-3.75 2.866-7.473 6.291-8.829 10.546-1.038 3.258 3.688 4.903 5.978 7.105 2.144 2.062 4.64 3.761 6.998 5.596.943.733 1.851 1.205 3.161.505 8.125-4.343 9.274-11.605 2.24-18.664"/>
        <path d="M880.428 630.515c-15.636-7.1-30.914-14.104-46.238-21.003-2.348-1.057-5.02-3.479-7.176.494-.425.782-1.429 1.056-2.217.698-4.687-2.126-9.4-4.212-13.961-6.588-1.621-.845-1.024-2.613-.351-4.033 6.127-12.929 12.146-25.911 18.443-38.757 2.636-5.377 15.227-9.099 20.559-6.634 8.002 3.7 15.982 7.482 24.16 10.758 4.108 1.647 6.332 4.024 7.578 8.313 3.176 10.937 3.384 10.835 14.606 10.987 2.308.031 4.608.52 6.914.782 3.416.388 6.707.578 8.405-3.419 1.011-2.38 2.799-2.514 4.92-1.344 1.6.883 3.216 1.775 4.913 2.44 10.992 4.299 9.284 3.356 4.825 13.215-4.358 9.636-4.473 9.53-14.987 8.676-10.115-.82-20.243-1.486-30.359-2.295-1.945-.156-3.683-.293-4.508 1.976-.975 2.685 1.291 3.112 2.802 3.84 4.044 1.951 8.173 3.729 12.268 5.575 1.098.495 2.349.885 3.364.216 7.75-5.1 12.463 2.74 18.593 4.416 1.772.484.978 2.565.328 3.933-3.138 6.61-6.364 13.177-9.445 19.812-1 2.153-2.233 3.253-4.637 2.209-4.118-1.788-8.247-3.552-12.359-5.353-1.142-.5-2.204-1.442-1.837-2.663 1.192-3.974-1.843-4.786-4.603-6.251m-40.121-39.123c4.252 1.88 8.501 3.767 12.759 5.636 1.384.608 3.133 1.445 4.157.048 2.965-4.047 4.962-8.688 5.99-13.545.507-2.39-16.057-10.107-18.403-8.801-1.712.952-7.227 13.322-6.615 15.132.173.513.986.81 2.112 1.53"/>
        <path d="M842.27 204.33c-7.594 4.558-14.891 8.904-22.13 13.346-2.894 1.777-5.6 1.36-8.92.942-13.158-1.652-15.878-13.263-21.949-21.705-.578-.805-.786-1.92-1.458-2.604-6.705-6.833-4.215-14.733-2.7-22.522.39-2.005 1.955-2.995 3.548-3.955 20.82-12.55 41.65-25.086 62.441-37.684 2.667-1.616 5.174-1.17 8.093-.747 9.456 1.372 14.619 7.428 18.623 15.326a82.6 82.6 0 0 0 7.341 11.874c5.1 6.862 2.249 13.631.32 20.473-.45 1.597-1.92 2.218-3.196 2.993a40582 40582 0 0 1-40.013 24.262m9.495-28.075c1.273-.787 2.561-1.552 3.818-2.365 12.022-7.774 11.912-7.71 4.334-20.005-2.017-3.274-3.782-4.01-7.139-1.954-13.036 7.987-26.28 15.638-39.245 23.739-10.063 6.288-9.928 6.503-3.674 16.846 3.276 5.417 4.396 5.708 9.857 2.512 10.476-6.129 20.947-12.267 32.049-18.773"/>
        <path d="M853.651 673.065c-1.439 3.67 1.836 4.24 3.473 6.394 3.403-3.862 6.446-2.072 9.444.362.646.524 1.338.992 2.023 1.465 8.568 5.92 8.559 5.911 2.502 14.285-3.019 4.175-6.091 8.317-8.95 12.6-1.754 2.628-3.48 2.527-5.771.8-2.654-2-5.43-3.84-8.19-5.692-2.277-1.528-4.346-2.799-2.942-6.344.928-2.342-1.652-3.74-3.138-5.205-17.17-16.936-34.299-33.915-51.627-50.688-3.049-2.951-3.372-4.998-.634-8.296 3.387-4.08 6.307-8.57 9.21-13.024 1.995-3.063 4.118-3.548 7.527-2.116 21.32 8.956 42.702 17.767 64.12 26.49 3.876 1.58 7.783 5.179 12.261.822.878-.854 2.206.255 3.156.892 2.628 1.76 5.174 3.644 7.825 5.365 5.392 3.5 5.41 3.467 1.573 8.844-3.575 5.011-7.257 9.952-10.669 15.072-1.759 2.638-3.442 3.243-6.078 1.282-2.4-1.785-4.886-3.505-7.51-4.927-3.182-1.725-5.107-3.728-2.86-7.315-5.987-3.492-6.49-3.415-9.905 1.588-1.594 2.334-3.102 4.726-4.84 7.346m-15.578-21.812-10.705-4.192 11.662 12.45c1.32-1.381 1.978-3.602 2.887-5.503-.616-1.692-2.084-1.854-3.844-2.755"/>
        <path d="M877.51 430.946c4.273.592 6.077 2.407 4.98 6.55-.589 2.226-.774 4.6-.838 6.915-.104 3.782-.916 6.585-5.659 5.955-1.484-.197-2.496.719-2.79 2.272-.125.654-.311 1.295-.453 1.946-1.99 9.096-1.262 10.19 7.622 11.493.165.024.327.076.492.083 15.068.635 12.023 2.753 13.908-11.175.2-1.48.411-2.96.646-4.436 1.292-8.132 1.295-8.131 9.455-7.705.333.017.666.024.998.046 8.722.588 8.812.59 8.68 9.304-.06 3.974-.264 7.992-.936 11.898-.574 3.34.762 4.796 3.713 5.104 5.288.554 10.595.921 15.896 1.344 1.338.107 2.172-.539 2.61-1.821 1.267-3.71.697-7.574.908-11.36.11-1.963-1.834-2.03-3.316-2.265-3.548-.56-4.433-2.59-4.035-6.068 1.435-12.548 1.335-12.62 13.81-12.256 3.976.116 7.938.677 11.91.981 3.285.252 3.498 2.336 3.236 4.956-1.47 14.701-2.81 29.416-4.334 44.112-1.028 9.916-1.138 10.015-11.482 9.3-3.576-.246-7.9.627-9.224-4.707-.434-1.748-2.813-1.665-4.379-1.8a7347 7347 0 0 0-53.21-4.367c-2.463-.194-5.022-.4-6.295 2.678-.69 1.669-2.48 1.488-3.96 1.387-3.815-.263-7.619-.786-11.436-.9-2.948-.088-3.623-1.402-3.384-4.108 1.484-16.833 2.948-33.668 4.212-50.518.308-4.103 2.087-4.982 5.839-4.456 5.427.761 10.918 1.068 16.817 1.618"/>
        <path d="M775.55 95.322c4.612-3.314 17.343-2.217 21.09 1.7 3.905 4.082 7.678 8.292 11.45 12.499 2.316 2.583 4.63 2.864 7.32.528 3.039-2.639 6.988-4.426 5.738-9.864-.474-2.063 2.3-3.516 3.956-4.807 9.464-7.383 8.503-10.751 17.288.95 2.69 3.584 5.806 6.856 8.831 10.175 2.168 2.379 1.968 4.29-.577 6.228-2.645 2.016-5.187 4.173-7.717 6.334-2.085 1.78-3.872 3.438-6.932 1.244-2.014-1.443-3.705.862-5.135 2.051-11.513 9.569-22.945 19.234-34.397 28.876-2.035 1.714-4.073 3.427-6.058 5.198-.854.762-2.316 1.79-1.8 2.782 2.834 5.455-2.031 7.046-4.757 9.315-8.775 7.304-8.716 7.062-16.137-1.957-6.337-7.7-13.12-15.033-19.637-22.587-7.129-8.262-6.29-20.104 1.986-27.198 8.338-7.147 16.793-14.158 25.487-21.467m6.988 19.782c-5.672 4.05-11.262 8.288-15.998 13.36-5.354 5.733 2.768 7.343 4.208 11.032 1.007 2.58 3.492 4.68 6.788 2.19.132-.1.275-.187.4-.295 4.893-4.216 9.793-8.425 14.668-12.662.868-.755 1.778-1.557 1.782-2.856.007-2.656-8.274-10.823-11.848-10.769"/>
        <path d="M904.11 319.763c-2.98 9.425-9.196 13.782-18.548 15.295-7.33 1.186-14.43 3.899-21.56 6.16-2.46.782-4.4.533-6.579-.78-7-4.22-12.903-8.907-14.129-17.973-.794-5.867-3.103-11.544-4.897-17.254-.649-2.065-.333-3.775.422-5.746 3.3-8.611 9.062-13.952 18.504-14.993 1.971-.217 3.644-.69 4.387 1.76 1.11 3.66 2.35 7.286 3.33 10.981.725 2.734.001 4.956-3.047 5.862-.473.14-1.112.269-1.335.619-2.887 4.538.787 8.472 1.326 12.692.339 2.657 2.377 4.055 5.139 3.359 4.673-1.178 9.294-2.56 13.937-3.856 2.287-.639 2.639-2.088 2.031-4.229-1.449-5.104-2.558-10.312-4.16-15.365-2.271-7.168 4.343-18.985 11.554-20.754 9.036-2.216 17.972-4.832 26.98-7.168 8.06-2.09 18.785 3.922 21.206 11.867 2.13 6.997 4.177 14.02 6.17 21.058 2.252 7.946-4.08 18.923-12.11 20.903-11.83 2.917-9.777 4.57-13.705-8.186-1.308-4.248-1.94-7.835 3.666-9.21 1.307-.32 1.859-1.403 1.485-2.734-1.125-4.002-2.306-7.988-3.457-11.982-.527-1.83-1.757-2.246-3.47-1.803-5.153 1.33-10.313 2.625-15.461 3.97-3.007.787-2.65 2.928-1.996 5.163 1.586 5.428 3.077 10.886 4.795 16.27.65 2.04.823 3.871-.477 6.074"/>
        <path d="M100.04 588.89c13.692-4.342 27.011-8.555 40.322-12.796 4.539-1.446 12.177 1.201 14.19 5.516 4.374 9.382 6.597 19.523 9.744 29.338.87 2.712-.333 4.5-3.075 5.266-2.406.67-4.812 1.344-7.2 2.075-2.47.757-2.13 2.768-1.712 4.534.573 2.424 2.292 1.888 3.94 1.172.153-.067.297-.154.45-.218 10.482-4.32 10.497-4.327 15.227 5.744 3.255 6.93 6.328 13.951 9.754 20.795 1.498 2.993.837 4.673-2.052 5.86-3.36 1.38-6.38 4.704-10.494 1.443-.888-.703-2.171.454-3.217.937-8.309 3.843-16.426 8.208-24.995 11.34-5.583 2.04-7.305 8.342-13.012 9.875-2.224.598-4.216 1.975-7.113.023-.07 18.355 2.931 36.136-1.569 53.682-1.676-7.013-2.508-14.015-2.251-21.215.385-10.758.334-21.531.48-32.298.062-4.476.293-8.747-1.64-13.23-1.514-3.51 2.893-5.92 5.394-5.463 9.953 1.821 16.932-5.03 25.247-7.802 4.858-1.619 9.369-4.307 13.98-6.626 1.58-.795 3.7-1.614 3.047-3.952-.61-2.189-1.361-4.506-3.88-5.453-5.924-2.228-10.084-9.564-9.086-16.135.274-1.801.901-3.578-.754-5.644-5.209 1.61-10.572 3.28-15.942 4.927-5.567 1.708-11.149 3.37-16.708 5.102-1.563.486-3.251.846-3.827 2.797-1.268 4.296-5.262 4.615-8.643 5.712-2.147.697-2.987-.965-3.568-2.589-3.363-9.397-6.883-18.746-9.942-28.242-1.637-5.079 3.09-12.479 8.905-14.475m29.011 4.777c-6.777 2.257-13.517 4.636-20.346 6.724-3.925 1.2-5.094 3.275-3.307 7.014.497 1.041.808 2.186 1.09 3.312.949 3.775 3.04 4.556 6.673 3.203 8.71-3.246 17.526-6.21 26.3-9.283 8.459-2.964 8.303-2.885 4.41-10.843-1.795-3.67-4.014-4.333-7.514-2.735-2.107.962-4.362 1.601-7.306 2.608"/>
        <path d="M76.316 503.496c-1.863.373-3.351.577-4.8.939-3.956.988-5.046-1.284-5.314-4.558-.27-3.3-.422-6.615-.852-9.894-.743-5.66 1.458-8.315 7.086-6.141 11.548 4.46 22.101-.724 33.047-1.95 7.256-.814 14.458-2.095 21.686-3.156 1.004-.148 1.989-.124 2.832.585 2.611 2.195 1.854 13.268-1.118 15.064-8.495 5.134-17.033 10.198-26.78 16.021 6.152-.729 10.839-1.26 15.518-1.853 1.477-.188 3.303-.307 3.833-1.893 1.63-4.885 5.652-4.04 9.145-3.781 3.816.283 3.469 3.984 4.23 6.522.561 1.87.6 3.921.706 5.9.131 2.443 2.783 5.793-.47 7.105-3.416 1.377-7.472 2.992-11.273-.143-2.41-1.987-5.594-1.118-8.165-.653-8.999 1.629-18.05 2.757-27.114 3.864-2.198.268-4.164.764-5.788 3.122-2.227 3.232-6.543 2.527-10.048 3.121-1.069.182-1.595-1.021-1.782-2.061-.675-3.757-1.406-7.506-1.976-11.279-.473-3.13 1.434-4.839 3.909-6.293 8.296-4.871 16.535-9.839 24.708-15.16-5.37.1-10.654.436-15.911 1.489-2.928.586-1.715 4.897-5.309 5.083"/>
        <path d="M197.414 48.359c1.399.977 2.425 1.853 3.58 2.497 3.124 1.739 3.116 3.804 1.099 6.485-1.786 2.374-3.274 4.971-4.867 7.43-2.251-.11-2.693-2.81-5.086-2.628-.266.246-.804.63-1.2 1.129-5.648 7.115-4.512 11.096 4.033 14.588 1.667.68 2.847.463 3.912-.95 1.704-2.262 3.533-4.432 5.167-6.74 5.64-7.967 12.633-9.156 20.228-3.383 3.71 2.82 7.413 5.652 11.166 8.415 6.677 4.916 6.879 16.406.483 21.843-1.617 1.375-2.9 3.204-4.122 4.973-2.51 3.636-5.144 6.922-9.989 7.537-1.978.252-3.276 1.417-2.82 3.844.221 1.183.578 2.656-1.86 4.099 1.09-6.483-3.892-8.382-7.474-11.288-2.121-1.72-2.642-3.469-.71-5.418 2.74-2.762 3.269-8.096 9.634-6.726 2.584.557 3.847-4.069 5.46-6.502 1.424-2.15-.559-3.283-1.85-4.512-.844-.803-1.702-1.597-2.606-2.33-2.687-2.175-5.158-2.96-7.298.81-1.057 1.863-2.74 3.375-3.761 5.251-2.71 4.984-6.894 7.282-12.417 7.923-1.985.23-3.43.129-5.027-1.132-4.176-3.298-8.5-6.408-12.751-9.609-1.581-1.19-2.984-2.885-5.525-1.156-2.123-8.087-1.337-15.742-.52-23.366 2.428-.863 1.408 1.863 3.098 2.271 2.232-2.995 4.567-6.177 6.954-9.32 2.969-3.911 9.85-5.868 15.07-4.035"/>
        <path d="M142.522 542.482c2.879 7.025 3.592 14.241 5.87 21.018.808 2.405-.117 3.96-2.44 4.539-3.605.897-7.025 2.76-11.025.54-2.76-1.532-5.91.227-8.751.929a469 469 0 0 0-23.096 6.36c-2.817.85-5.529 1.365-7.579 4.713-1.836 2.998-6.898 3.453-10.542 3.025-2.899-.341-2.563-4.147-3.268-6.662-2.513-8.959-5.058-17.913-7.837-26.792-1.149-3.667-.486-5.758 3.523-6.37 1.473-.225 2.938-.636 4.344-1.14 11.013-3.939 8.388-2.62 11.664 6.604.572 1.61.583 3.058-1.165 3.784-4.92 2.043-1.73 5.14-1.095 7.889.805 3.484 3.51 3.046 5.997 2.693 6.762-.96 8.228-3.194 6.499-9.639-.13-.482-.281-.958-.42-1.438-2.208-7.646-.327-10.278 7.69-11.062 2.504-.245 2.97 1.24 3.653 3.111 1.523 4.17 1.507 8.899 4.386 12.59 2.505.195 4.731-.685 6.837-1.537 2.055-.832 5.982-.336 5.314-3.818-.563-2.935-.02-6.926-5.24-7.828-4.234-.732-3.708-5.82-4.567-9.124-.716-2.755 2.466-2.626 4.15-3.203 14.328-4.911 11.91-4.35 16.474 7.993.285.772.36 1.621.624 2.825"/>
        <path d="M201.862 688.558c.301 7.803-3.12 12.344-9.843 15.855-10.432 5.45-20.242 12.087-30.322 18.21-6.553 3.98-14.926 1.977-18.917-4.668a325 325 0 0 1-8.087-14.325c-2.909-5.45-.966-12.55 4.266-15.616 12.607-7.39 25.217-14.775 37.918-22 5.45-3.1 9.963.401 14.185 3.095 1.514.966 2.963 1.696 4.811 2.07-1.638 7.027 3.692 11.444 5.989 17.379m-15.494-2.564c-1.526-2.532-2.685-5.335-5.377-7.299-10.61 6.122-21.233 12.24-31.837 18.39-1.13.657-2.647 1.5-1.932 3.04 1.602 3.454 3.425 6.813 5.324 10.116 1.04 1.809 2.533 1.01 3.873.204 9.532-5.734 19.014-11.551 28.62-17.156 3.118-1.82 3.873-3.753 1.33-7.295"/>
        <path d="M197.892 740.894c4.172-2.785 7.95-5.523 11.923-7.944 3.086-1.88 3.249-4.15 1.13-6.538-2.143-2.416-3.006-7.559-8.195-4.662-1.885 1.053-3.66 2.301-5.489 3.456-1.852 1.169-2.568 2.823-1.196 4.618 2.288 2.991 1.976 5.188-1.106 7.445-1.035.759-1.254 2.633-1.903 4.13-8.465-2.086-9.835-10.537-14.344-16.116-1.441-1.783-.272-3.402 1.472-4.55 7.219-4.757 14.369-9.62 21.657-14.268 3.45-2.2 11.037-.204 13.785 3.711a258 258 0 0 1 10.302 15.918c2.372 3.973.588 11.788-3.221 14.281a3057 3057 0 0 1-37.728 24.307c-4.318 2.736-12.31 1.329-15.172-2.86-3.652-5.342-7.995-10.435-10.117-16.56-2.597-7.495-.98-12.688 5.399-15.464 2.222-.967 3.668-.995 4.99 1.215 1.108 1.85 2.493 3.533 3.73 5.308.763 1.096 1.686 2.252.506 3.57-1.148 1.283-2.447 2.573-1.232 4.348 1.868 2.729 3.67 5.605 6.042 7.843 1.12 1.056 3.082-.496 4.454-1.429 4.676-3.18 9.337-6.382 14.313-9.76"/>
        <path d="M59.738 434.725c-.038-3.29.36-6.21-.203-8.93-1.196-5.771 1.524-9.63 5.088-13.639 3.22-3.623 7.004-2.128 10.643-2.196 1.665-.03 2.268 1.535 2.061 2.88-.514 3.353 2.644 7.467-2.877 9.852-4.084 1.764-1.982 6.212-1.906 9.45.077 3.254 3.012 2.277 5.038 2.399 1.162.07 2.338.015 3.49.16 4.573.58 5.93-1.354 6.025-5.932.115-5.568-1.632-11.568 3.313-16.507 2.739-2.735 5.438-4.02 9.176-3.865 3.98.165 7.975.159 11.957.033 9.668-.304 14.53 4.278 14.819 14.031.113 3.817.346 7.63.566 11.442.482 8.389-8.091 15.501-16.18 13.428-.848-.218-1.476-.538-1.923-1.36-1.315-2.421.217-10.64 2.295-12.515 2.974-2.687 1.702-6.235 1.413-9.364-.26-2.807-3.042-2.62-5.167-2.704-7.133-.279-7.216.037-7.387 7.54-.11 4.816 1.513 9.661-1.876 14.432-3.423 4.821-7.857 5.84-12.916 5.49-3.674-.254-7.29-.042-10.932.063-7.793.225-14.132-5.784-14.517-14.188"/>
        <path d="M69.173 307.144c1.35-5.735 2.507-11.105 3.851-16.428 1.715-6.787 10.392-10.734 16.604-7.717 1.542.749 2.57 1.92 2.22 3.496-.622 2.815.262 7.185-2.993 7.931-7.16 1.642-4.467 7.341-6.151 10.932.546.619.633.813.77.859 14.63 4.897 12.367 5.805 16.081-8.437 2.284-8.754 7.379-12.453 16.286-10.423 3.893.887 7.8 1.725 11.664 2.727 8.82 2.286 12.276 7.802 10.792 16.817-.574 3.488-1.717 6.762-.918 10.61.94 4.526-3.928 5.794-6.436 8.462-3.99 4.243-8.143 3.444-12.744 1.877-2.481-.844-3.805-2.242-2.674-4.82 1.45-3.305.439-7.746 6.066-9.117 2.472-.602 2.59-5.844 2.736-9.067.13-2.85-3.03-2.617-4.96-3.189-7.62-2.258-7.602-2.142-9.197 5.927-1.014 5.128-1.105 10.618-6.144 14.189-2.944 2.086-5.722 3.035-9.28 2.065-4.489-1.223-9.057-2.157-13.6-3.171-6.825-1.525-10.715-5.731-11.973-13.523"/>
        <path d="M103.048 233.666c3 .687 4.162 2.197 2.976 4.805-1.533 3.366-.54 8.308-7.077 8.367-2.68.025-3.172 5.028-3.534 8.12-.298 2.542 1.925 3.222 3.858 3.835 2.835.898 5.69 1.73 8.601 2.61 2.386-3.053 3.483-6.39 3.955-9.814.864-6.262 5.38-9.215 10.15-12.069 1.276-.764 2.545-.525 3.846-.096 6.163 2.036 12.396 3.884 18.476 6.142 5.081 1.888 8.467 9.337 6.896 14.422-1.276 4.13-2.997 8.164-3.847 12.376-1.088 5.393-4.686 8.18-9.115 10.423-2.448 1.24-10.927-.729-11.966-2.743-1.14-2.209 2.513-10.65 5.178-11.375 4.972-1.353 4.509-5.794 5.106-9.246.586-3.386-2.97-3.458-5.18-4.217-6.683-2.296-6.604-2.202-8.914 4.605-1.978 5.829-2.51 12.557-9.766 15.194-2.164.787-3.953 1.26-6.163.483-4.237-1.491-8.477-3.077-12.84-4.08-5.51-1.268-9.057-4.21-11.109-9.543-.95-2.468-1.566-4.52-.604-7.09 1.397-3.736 2.9-7.514 3.596-11.41 1.018-5.696 5.176-8.229 9.478-10.786 2.748-1.633 5.1.531 7.999 1.087"/>
        <path d="M430.146 437.74c3.911 1.593 7.266 3.27 9.568 6.63 3.56 5.197 3.744 11.352.135 16.57-5.241 7.574-7.896 16.546-12.308 24.302-4.959 8.717-5.306 18.692-10.434 27.053-2.616 4.265-1.549 9.442-1.762 14.184-.335 7.468.08 14.968.15 22.455.029 2.957-.012 5.916-2.15 8.36-2.531-.826-3.004-2.775-3.568-4.677-1.662-5.606-2.83-11.29-2.847-17.17-.03-9.975-1.983-19.924-.943-29.878.62-5.925 1.05-11.834 3.553-17.66 2.495-5.81 2.942-12.531 4.067-18.892 1.553-8.788 3.179-17.529 7.138-25.645 1.855-3.804 3.907-7.154 9.401-5.631"/>
        <path d="M451.17 394.718c-5.235 5.38-11.882 5.133-18.202 4.85-2.667-.12-3.288-3.875-4.16-6.339-1.403-3.958-1.404-8.13-1.672-12.281-.617-9.565-1.241-19.14-2.304-28.663-1.122-10.062 1.478-19.382 4.727-28.65 3.303-9.421 7.653-18.449 10.498-28.047.45-1.518 1.233-3.06 2.956-4.116 2.632 1.76 2.313 4.341 1.914 6.702-.637 3.766-1.437 7.524-2.475 11.199-2.023 7.169-2.896 14.335-.861 21.641 1.107 3.976.1 7.91-.114 11.88-.75 13.944-.198 27.676 6.755 40.404 1.816 3.326 2.848 7.106 2.937 11.42"/>
        <path d="M96.62 399.524a3882 3882 0 0 0-24.792-2.187c-5.523-.47-11.432-7.128-10.977-12.652.476-5.77 1.122-11.529 1.81-17.278.747-6.231 7.363-10.732 13.373-9.409 2.658.585 3.755 2.222 3.503 4.598-.274 2.586 1.125 6.234-2.572 7.264-6.545 1.824-3.55 6.88-3.825 10.642-.324 4.442 3.332 3.93 6.305 4.333 10.402 1.406 20.882 1.649 31.327 2.424 3.65.271 4.998-1.108 4.931-4.377-.072-3.57 1.609-7.647-3.427-9.756-1.881-.788-2.09-8.754-.73-10.332 1.53-1.775 9.148-1.323 11.17.966 3.314 3.753 6.367 7.595 5.328 13.31-1.276 7.018.824 14.813-5.178 20.686-2.104 2.059-4.245 3.684-7.404 3.396-6.128-.559-12.263-1.038-18.843-1.628"/>
        <path d="M64.995 337.69c.169-1.369.252-2.356.321-3.344.524-7.487 3.775-9.533 10.876-6.845.31.118.823.134.913.341 3.523 8.09 11.372 5.162 17.355 6.534 6.767 1.551 13.809 1.89 20.714 2.87 1.762.249 3.348.49 4.3-1.396.894-1.772 2.42-1.328 3.909-1.277 7.95.272 8.392.721 7.895 8.456-.107 1.66-.125 3.35-.477 4.962-.595 2.724.832 7.234-2.89 7.536-3.678.299-8.97 1.996-10.948-3.923-.323-.968-1.525-1.14-2.557-1.27-10.546-1.323-21.086-2.693-31.634-3.997-2.468-.305-4.6.075-7.03 1.412-3.251 1.787-7.15.646-10.583-.743-1.515-.613-1.255-2.193-1.082-3.518.237-1.81.547-3.611.918-5.798"/>
        <path d="M557.1 359.473c.112 2.829-1.796 3.77-3.793 4.536.538 1.94 4.185 2.41 1.902 4.98-4.792-2.256-5.29-3.55-1.795-7.206 2.171-2.27-1.016-4.99 1.546-7.116 2.389.574 3.398 1.923 2.14 4.806"/>
        <path d="M236.546 110.625c-2.607-2.483-1.846-5.153-.568-8.756 1.791 3.338 2.714 5.854.568 8.756"/>
    </g>
</svg>
